Motion_pu04
version=1
nRows=10
nColumns=43
inDegrees=yes
endheader
time	pelvis_tilt	pelvis_list	pelvis_rotation	pelvis_tx	pelvis_ty	pelvis_tz	hip_flexion_r	hip_adduction_r	hip_rotation_r	knee_angle_r	ankle_angle_r	subtalar_angle_r	mtp_angle_r	hip_flexion_l	hip_adduction_l	hip_rotation_l	knee_angle_l	ankle_angle_l	subtalar_angle_l	mtp_angle_l	lumbar_extension	lumbar_bending	lumbar_rotation	neck_flexion	neck_lateral_bending	neck_rotation	arm_flex_r	arm_add_r	arm_rot_r	elbow_flex_r	pro_sup_r	wrist_flex_r	wrist_dev_r	hand_finger_flex_r	arm_flex_l	arm_add_l	arm_rot_l	elbow_flex_l	pro_sup_l	wrist_flex_l	wrist_dev_l	hand_finger_flex_l
      2.83000000	     -0.16666391	     11.79714441	    -90.60827184	     -0.01795063	      0.92232164	      1.23649619	      6.30300740	     -3.54661703	     -8.34896621	     -7.68417758	     15.07088560	     -3.27892852	     -6.10070658	      3.26500709	     -0.26949104	    -12.22864467	     -5.88840674	     19.63263984	     -2.13019683	    -12.55470270	     24.54989236	     -0.70002700	    -16.82839962	    -11.38898382	     -0.34845520	     24.79706138	   -236.99169566	    -34.78531492	   -345.45011238	     83.36261853	    113.49404200	     -2.08975738	      1.53912076	     47.97314236	    184.08564755	    -52.81706101	     84.16978379	     86.64933987	    100.47215848	    -20.58440453	     20.80618721	     74.74575519
      2.83250000	     -0.16827857	     11.82460240	    -90.64948150	     -0.01788326	      0.92241558	      1.23607855	      6.30245845	     -3.53893154	     -8.36164287	     -7.57018446	     15.09483516	     -3.27707876	     -6.11446620	      3.28921687	     -0.26398368	    -12.23237525	     -5.82115652	     19.65559679	     -2.12480315	    -12.56707159	     24.53524343	     -0.66627267	    -16.83053830	    -11.32026831	     -0.34063085	     24.80493012	   -237.16613062	    -34.80941176	   -345.61051116	     83.67785628	    113.44540848	     -2.19312733	      1.47991872	     47.96620625	    184.13684755	    -52.98413277	     84.08101882	     86.99595822	    100.41533588	    -20.73377582	     20.71044254	     74.74830333
      2.83500000	     -0.17555194	     11.83171339	    -90.65411189	     -0.01760569	      0.92230652	      1.23573538	      6.30938451	     -3.56052601	     -8.36219856	     -7.54767706	     15.09484732	     -3.27597084	     -6.11670914	      3.31047675	     -0.24942261	    -12.23337637	     -5.80641033	     19.65587226	     -2.12213068	    -12.56900843	     24.50069780	     -0.63189997	    -16.84447695	    -11.31811238	     -0.34133335	     24.80649481	   -237.19031391	    -34.82189927	   -345.65540867	     83.71340515	    113.43905929	     -2.21278027	      1.47283004	     47.96401932	    184.12918723	    -53.01548270	     84.07377379	     87.03318455	    100.40712220	    -20.75626572	     20.69777852	     74.74675010
      2.83750000	     -0.16371800	     11.72736811	    -90.59021032	     -0.01756073	      0.92278815	      1.23540390	      6.10244980	     -3.55592988	     -8.45325336	     -7.31981804	     15.00400783	     -3.16614341	     -6.66195779	      3.18201429	     -0.23524265	    -12.42470768	     -5.70697919	     19.66525991	     -1.88208597	    -13.04892818	     24.36560004	     -0.66815522	    -17.02004819	    -11.21603370	     -0.35715600	     25.02127601	   -237.61979924	    -34.69713868	   -345.96673894	     84.06345487	    113.08896956	     -4.11444450	      0.84113366	     48.12138906	    184.41370699	    -53.38960475	     84.84603934	     87.44670345	     99.29591406	    -24.93341926	     19.12191261	     74.71298929
      2.84000000	     -0.15726389	     11.76509483	    -90.63553366	     -0.01742376	      0.92271892	      1.23482715	      6.13718399	     -3.56170680	     -8.46521570	     -7.19763273	     15.00340754	     -3.15852852	     -6.67195238	      3.23112293	     -0.21747305	    -12.39886219	     -5.65956942	     19.65823172	     -1.86381245	    -13.05783042	     24.31669466	     -0.61922842	    -16.98899755	    -11.27594965	     -0.37602957	     25.01851108	   -237.65486502	    -34.70159880	   -346.15394296	     84.32002157	    113.04121969	     -4.14632303	      0.82000803	     48.13423541	    184.51299955	    -53.51103881	     84.75325543	     87.60685113	     99.28426749	    -24.96955328	     19.09366186	     74.75110293
      2.84250000	     -0.14685949	     11.79767709	    -90.66680613	     -0.01735736	      0.92287480	      1.23438169	      6.14221640	     -3.56779716	     -8.46710075	     -7.05976644	     14.98191534	     -3.13588093	     -6.68868609	      3.26916400	     -0.20403386	    -12.38582444	     -5.60828541	     19.64488861	     -1.84547029	    -13.07103338	     24.31845506	     -0.60161595	    -17.01403974	    -11.29189252	     -0.41185648	     25.02095117	   -237.90452596	    -34.69928445	   -346.38943842	     84.70794599	    112.98293176	     -4.20999325	      0.78426662	     48.14493133	    184.55225846	    -53.71135871	     84.65908021	     87.96930082	     99.25245316	    -25.04095710	     19.02774201	     74.79847906
      2.84500000	     -0.13163792	     11.82395897	    -90.66385268	     -0.01728908	      0.92302333	      1.23399139	      6.12904844	     -3.58461237	     -8.47173080	     -6.92533980	     14.89928148	     -3.09173365	     -6.72288511	      3.30694855	     -0.19075792	    -12.38465053	     -5.58284293	     19.58555158	     -1.81219518	    -13.09754735	     24.33019313	     -0.62282358	    -17.07709536	    -11.32928458	     -0.46478071	     25.03366995	   -238.22298382	    -34.64044141	   -346.74163436	     85.00461831	    112.94807072	     -4.33886855	      0.76071502	     48.14315087	    184.54264213	    -53.88876686	     84.56084604	     88.38849462	     99.19306980	    -25.19885982	     18.92718111	     74.84479976
      2.84750000	     -0.12211767	     11.85040796	    -90.64249281	     -0.01707255	      0.92299303	      1.23352921	      6.13705210	     -3.60532583	     -8.48181777	     -6.84807502	     14.86756788	     -3.07657439	     -6.73769863	      3.35042453	     -0.16645581	    -12.38712725	     -5.54572998	     19.56057017	     -1.79516636	    -13.10882654	     24.29356995	     -0.60019375	    -17.08960301	    -11.36880851	     -0.47976394	     25.04247309	   -238.26297786	    -34.63964334	   -346.93350598	     85.26857995	    112.92613976	     -4.41304665	      0.73085253	     48.13499914	    184.57426358	    -54.04724621	     84.50133510	     88.50619945	     99.16459443	    -25.28466454	     18.88797258	     74.85465822
      2.85000000	     -0.10713792	     11.87928750	    -90.67014928	     -0.01701226	      0.92315081	      1.23299893	      6.14870828	     -3.61952212	     -8.50452528	     -6.71515237	     14.82258346	     -3.05304610	     -6.75891471	      3.39607478	     -0.14839956	    -12.38836993	     -5.49312476	     19.52440571	     -1.77001699	    -13.12459880	     24.26885737	     -0.59375464	    -17.12789517	    -11.38537316	     -0.52124932	     25.05776079	   -238.50781063	    -34.66114683	   -347.15264377	     85.66417187	    112.90539815	     -4.52599751	      0.68567361	     48.11619403	    184.63235233	    -54.23371328	     84.37172156	     88.88711530	     99.10783232	    -25.43257348	     18.79531635	     74.86348174
      2.85250000	     -0.09041237	     11.89818055	    -90.66422526	     -0.01693658	      0.92336376	      1.23261298	      6.13013926	     -3.64087000	     -8.53939092	     -6.57873600	     14.71456669	     -3.00773662	     -6.79876460	      3.42597055	     -0.12802409	    -12.40006453	     -5.46849898	     19.43709836	     -1.72654104	    -13.15431359	     24.28278070	     -0.61486803	    -17.16185062	    -11.40843920	     -0.56586600	     25.08582058	   -238.82214326	    -34.62662404	   -347.48558415	     86.00127269	    112.92188999	     -4.72648169	      0.64884434	     48.06706217	    184.57341936	    -54.45136721	     84.28809969	     89.34104626	     99.00642226	    -25.69954054	     18.65570998	     74.85399341
